<?xml version="1.0" standalone="no"?>
<!DOCTYPE svg PUBLIC "-//W3C//DTD SVG 20010904//EN"
 "http://www.w3.org/TR/2001/REC-SVG-20010904/DTD/svg10.dtd">
<svg version="1.0" xmlns="http://www.w3.org/2000/svg"
 width="908.000000pt" height="908.000000pt" viewBox="0 0 908.000000 908.000000"
 preserveAspectRatio="xMidYMid meet">
<metadata>
Created by potrace 1.14, written by Peter Selinger 2001-2017
</metadata>
<g transform="translate(0.000000,908.000000) scale(0.100000,-0.100000)"
fill="#000000" stroke="none">
<path d="M2110 7253 c0 -5 -29 -39 -65 -76 -36 -38 -65 -71 -65 -73 0 -3 -10
-16 -22 -29 -30 -31 -49 -52 -153 -170 -48 -55 -116 -131 -149 -169 -34 -38
-68 -77 -76 -86 -19 -21 -131 -149 -145 -164 -5 -6 -44 -49 -85 -96 -41 -47
-79 -90 -85 -96 -11 -12 -102 -116 -135 -154 -12 -14 -47 -54 -78 -89 -79 -89
-80 -90 -147 -166 -33 -38 -73 -82 -88 -99 -16 -17 -45 -51 -65 -75 -21 -24
-48 -56 -62 -70 -14 -15 -43 -47 -65 -72 -22 -25 -68 -77 -101 -115 -34 -38
-98 -111 -143 -162 -45 -51 -96 -110 -115 -130 -41 -46 -129 -146 -228 -260
l-38 -43 0 -312 0 -312 972 0 973 0 1 -70 c0 -84 -16 -178 -39 -222 -26 -49
-87 -101 -141 -119 -35 -12 -87 -17 -178 -17 -70 -1 -129 -4 -129 -7 -5 -17
-4 -540 0 -541 14 -3 2077 -5 2086 -2 6 2 10 103 10 276 l0 272 -110 2 c-164
3 -177 6 -247 50 -76 47 -117 154 -116 298 l1 81 446 -1 446 0 43 -47 c69 -74
211 -158 297 -174 11 -2 31 -7 45 -10 14 -4 77 -8 141 -9 104 -3 140 1 264 29
71 16 168 71 229 129 48 47 102 149 120 227 14 62 15 168 3 238 -8 45 -49 133
-84 179 -59 80 -161 154 -231 168 -12 2 -27 7 -33 11 -21 12 -152 5 -234 -13
-39 -9 -63 -17 -87 -30 -13 -7 19 90 42 127 6 8 14 25 20 37 13 31 145 163
200 200 106 71 269 131 405 149 125 17 263 7 400 -27 53 -13 166 -59 186 -76
9 -7 19 -10 22 -6 4 3 7 1 7 -5 0 -6 9 -14 20 -17 12 -4 56 -42 99 -84 63 -62
88 -96 120 -164 42 -85 78 -229 68 -268 -3 -11 -1 -19 4 -19 4 0 7 -6 4 -12
-2 -7 -6 -48 -10 -92 -3 -43 -10 -87 -15 -97 -6 -10 -10 -25 -10 -33 0 -24
-49 -125 -93 -190 -98 -146 -309 -313 -582 -461 -38 -21 -74 -41 -80 -45 -5
-4 -68 -38 -140 -75 -71 -38 -147 -79 -167 -92 -21 -12 -40 -23 -44 -23 -11 0
-249 -143 -252 -152 -2 -4 -8 -6 -13 -2 -5 3 -9 1 -9 -5 0 -5 -9 -13 -20 -16
-11 -3 -26 -12 -32 -19 -7 -6 -35 -27 -63 -46 -134 -90 -277 -222 -379 -349
-57 -71 -166 -240 -166 -259 0 -4 -7 -19 -15 -35 -22 -43 -75 -199 -77 -229
-1 -16 -5 -28 -8 -28 -3 0 -6 -10 -7 -22 0 -13 -4 -39 -7 -58 -4 -19 -9 -62
-11 -95 -2 -33 -5 -60 -6 -60 -6 0 -3 -368 3 -371 4 -3 110 -5 235 -5 370 0
333 -3 333 25 0 14 4 27 9 30 4 3 11 18 14 33 14 67 125 152 222 170 48 8 204
8 262 -1 44 -7 190 -56 261 -88 70 -31 391 -158 467 -185 192 -66 269 -77 515
-76 172 0 210 3 320 27 158 34 147 31 200 52 274 108 443 290 525 566 13 43
27 96 30 116 3 21 7 47 9 59 17 84 30 504 18 568 -3 21 -9 21 -278 21 -151 0
-274 -3 -275 -6 0 -3 -2 -34 -4 -69 -9 -162 -44 -276 -104 -338 -31 -33 -96
-71 -135 -79 -25 -6 -191 -5 -226 0 -14 3 -43 7 -65 11 -22 3 -119 24 -215 46
-250 58 -289 65 -410 76 -139 13 -473 6 -521 -12 -8 -2 -27 -7 -42 -9 -41 -7
-95 -25 -147 -48 -101 -45 -116 -53 -146 -75 -17 -13 -34 -23 -38 -23 -4 0
-20 -10 -36 -22 -16 -12 -33 -19 -36 -15 -23 23 240 297 285 297 7 0 14 7 17
15 4 8 10 15 15 15 5 0 37 17 71 38 35 21 90 51 123 66 111 52 348 142 388
148 12 2 24 6 27 9 3 3 46 17 95 32 50 14 128 37 175 51 47 15 94 28 105 31
11 2 99 30 195 62 96 31 177 57 180 58 3 1 16 6 30 12 14 6 50 21 80 33 30 12
99 43 152 70 395 198 606 484 655 885 14 116 7 387 -13 465 -3 14 -8 36 -11
50 -46 233 -196 474 -392 630 -24 19 -49 41 -56 48 -8 6 -17 12 -20 12 -4 0
-19 8 -33 19 -45 31 -153 87 -222 115 -36 15 -74 31 -85 36 -25 11 -200 61
-235 66 -8 1 -40 7 -70 13 -97 19 -114 21 -185 27 -111 9 -156 12 -220 14 -75
1 -302 -8 -334 -15 -13 -2 -49 -7 -80 -11 -139 -15 -425 -88 -543 -138 -21 -9
-39 -16 -40 -15 -9 3 -215 -111 -275 -151 -146 -99 -281 -235 -353 -355 -13
-22 -28 -41 -32 -43 -4 -2 -8 -8 -8 -13 0 -5 -13 -36 -29 -69 -16 -33 -27 -60
-24 -60 3 0 1 -6 -5 -13 -13 -15 -51 -157 -58 -217 -7 -51 -27 -74 -54 -60
-10 5 -19 7 -22 5 -4 -4 -198 -5 -575 -4 l-121 0 -1 157 c-1 86 -2 166 -1 177
0 11 0 121 -1 245 0 124 0 230 0 235 1 24 2 1554 2 1588 l-1 37 -485 0 c-267
0 -485 -3 -485 -7z m-136 -1145 c-7 -292 -13 -555 -20 -868 -3 -173 -7 -331
-8 -350 l-1 -35 -608 -2 c-348 -1 -607 2 -605 7 2 5 48 60 102 122 55 62 106
120 113 128 7 8 28 31 46 50 18 19 61 69 97 110 36 41 74 84 85 96 17 17 56
61 155 174 52 59 151 170 182 204 20 23 45 50 55 62 37 44 149 169 174 196 14
15 47 53 75 84 27 32 62 72 77 88 16 17 38 43 50 58 12 15 25 28 28 28 3 0 5
-69 3 -152z"/>
<path d="M8293 4943 c-68 -13 -173 -57 -173 -74 0 -5 -5 -9 -11 -9 -15 0 -77
-69 -107 -119 -66 -113 -76 -275 -23 -390 104 -228 371 -326 591 -216 115 58
189 153 223 284 12 48 14 147 4 191 -9 42 -33 99 -55 135 -30 48 -129 145
-148 145 -8 0 -14 4 -14 8 0 4 -21 16 -47 25 -93 32 -148 37 -240 20z"/>
<path d="M7757 3778 c-12 -7 -15 -304 -3 -315 4 -4 60 -8 126 -8 112 -1 120
-3 153 -28 29 -22 37 -36 44 -79 4 -28 8 -277 7 -552 0 -451 -2 -504 -17 -533
-30 -56 -58 -68 -177 -70 -58 -1 -112 -2 -120 -3 -15 0 -17 -34 -10 -120 1
-14 1 -29 0 -35 -1 -5 -1 -39 0 -75 1 -36 2 -72 2 -80 0 -13 78 -15 656 -15
l657 0 3 163 c2 126 0 162 -10 163 -7 0 -53 1 -103 1 -114 1 -159 17 -182 67
-16 33 -18 96 -18 778 0 488 -3 743 -10 744 -41 5 -989 3 -998 -3z"/>
</g>
</svg>
