<?xml version="1.0" standalone="no"?>
<!DOCTYPE svg PUBLIC "-//W3C//DTD SVG 1.1//EN" "http://www.w3.org/Graphics/SVG/1.1/DTD/svg11.dtd" >
<svg xmlns="http://www.w3.org/2000/svg">
<metadata>Generated by IcoMoon</metadata>
<defs>
<font id="42i-icon" horiz-adv-x="1024">
<font-face units-per-em="1024" ascent="960" descent="-64" />
<missing-glyph horiz-adv-x="1024" />
<glyph unicode="&#x20;" horiz-adv-x="512" d="" />
<glyph unicode="&#xe900;" glyph-name="logo" horiz-adv-x="1707" d="M1570.886 364.228c48.434-1.829 86.278 35.992 84.449 84.426-1.558 41.457-36.263 76.162-77.72 77.743-48.434 1.829-86.255-35.992-84.449-84.426 1.535-41.434 36.263-76.162 77.72-77.743zM1675.228 7.782c-22.354 0-27.751 11.561-27.751 33.125v265.879h-191.117v-61.643h35.45c22.354 0 27.751-11.561 27.751-33.125v-171.088c0-21.586-5.397-33.125-27.751-33.125h-33.147v-61.643h248.131v61.643h-31.567zM1198.859 108.037c-59.995 0-109.039 28.383-189.559 28.383-62.93 0-95.761-5.532-146.363-41.321l-2.461 2.461c112.29 175.22 490.662 81.446 490.662 377.604 0 176.462-147.605 244.337-300.629 244.337-143.631 0-310.384-60.853-327.861-217.964h-143.428v458.463h-180.933l-398.287-450.899v-117.235h365.727v-21.519c0-34.547-17.274-59.227-54.305-59.227h-38.16v-103.664h394.878v103.664h-34.638c-37.031 0-54.305 24.68-54.305 59.227v21.519h168.108c22.286-28.902 57.263-46.266 99.578-46.266 98.719 0 117.235 59.227 117.235 98.719 0 41.954-34.547 87.61-81.446 87.61-14.812 0-33.328-2.461-48.118-9.867 16.032 65.391 90.071 98.719 150.54 98.719 80.204 0 150.563-44.437 150.563-132.047 0-202.384-414.635-174.001-414.635-482.511v-51.821h107.345c4.922 35.789 30.867 50.602 70.336 50.602 40.712 0 68.62-17.274 113.035-34.547s80.972-34.547 137.738-34.547c143.134 0 215.954 63.698 215.954 205.59v60.469h-104.906c0.045-41.954-4.9-93.933-61.666-93.933zM365.727 507.498h-230.609l236.638 266.24-6.029-266.24z" />
<glyph unicode="&#xe901;" glyph-name="menu" d="M972.902 658.874h-921.69c-24.928 0-45.16 20.232-45.16 45.16s20.232 45.16 45.16 45.16h921.69c24.928 0 45.16-20.232 45.16-45.16s-20.232-45.16-45.16-45.16zM972.902 402.84h-729.693c-24.928 0-45.16 20.232-45.16 45.16s20.232 45.16 45.16 45.16h729.671c24.928 0 45.16-20.232 45.16-45.16s-20.209-45.16-45.137-45.16zM972.902 146.806h-537.673c-24.928 0-45.16 20.232-45.16 45.16s20.232 45.16 45.16 45.16h537.673c24.928 0 45.16-20.232 45.16-45.16s-20.232-45.16-45.16-45.16z" />
<glyph unicode="&#xe902;" glyph-name="clear" horiz-adv-x="896" d="M511.901 447.955l357.756 357.756c17.635 17.635 17.635 46.221 0 63.856s-46.221 17.635-63.856 0l-357.756-357.756-357.756 357.756c-17.635 17.635-46.221 17.635-63.856 0s-17.635-46.221 0-63.856l357.756-357.756-357.756-357.756c-17.635-17.635-17.635-46.221 0-63.856 8.829-8.829 20.367-13.232 31.928-13.232s23.099 4.403 31.928 13.232l357.756 357.756 357.756-357.779c8.829-8.829 20.367-13.232 31.928-13.232s23.099 4.403 31.928 13.232c17.635 17.635 17.635 46.221 0 63.856l-357.756 357.779z" />
<glyph unicode="&#xe903;" glyph-name="add" horiz-adv-x="992" d="M880.085 549.565h-282.43v282.43c0 56.111-45.499 101.61-101.61 101.61s-101.61-45.499-101.61-101.61v-282.43h-282.43c-56.111 0-101.61-45.499-101.61-101.61s45.499-101.61 101.61-101.61h282.43v-282.407c0-56.111 45.499-101.61 101.61-101.61s101.61 45.499 101.61 101.61v282.385h282.43c56.111 0 101.61 45.521 101.61 101.61 0 56.134-45.499 101.632-101.61 101.632z" />
<glyph unicode="&#xe904;" glyph-name="remove" horiz-adv-x="992" d="M880.085 346.39h-768.079c-56.111 0-101.61 45.499-101.61 101.61s45.499 101.61 101.61 101.61h768.102c56.111 0 101.61-45.499 101.61-101.61s-45.499-101.61-101.632-101.61z" />
<glyph unicode="&#xe905;" glyph-name="arrow-back" horiz-adv-x="928" d="M880.916 493.702h-609.974v127.802c0 8.671-4.968 16.574-12.758 20.322-7.767 3.771-17.070 2.755-23.867-2.642l-217.783-172.962c-5.374-4.29-8.535-10.793-8.535-17.68s3.161-13.39 8.535-17.68l217.783-172.962c4.087-3.252 9.032-4.9 14.045-4.9 3.342 0 6.706 0.745 9.822 2.258 7.813 3.771 12.758 11.674 12.758 20.322v127.802h609.997c24.928 0 45.16 20.232 45.16 45.16s-20.232 45.16-45.182 45.16z" />
<glyph unicode="&#xe906;" glyph-name="arrow-forward" horiz-adv-x="928" d="M911.557 465.116l-217.783 172.962c-6.774 5.374-16.054 6.413-23.867 2.642s-12.758-11.674-12.758-20.322v-127.802h-609.974c-24.928 0-45.16-20.232-45.16-45.16s20.232-45.16 45.16-45.16h609.997v-127.825c0-8.671 4.968-16.551 12.758-20.322 3.116-1.49 6.48-2.258 9.822-2.258 5.013 0 9.958 1.648 14.045 4.9l217.783 172.985c5.374 4.29 8.535 10.793 8.535 17.68s-3.161 13.412-8.558 17.68z" />
<glyph unicode="&#xe907;" glyph-name="arrow-upward" horiz-adv-x="416" d="M399.252 677.728l-172.962 217.761c-8.558 10.793-26.825 10.793-35.36 0l-172.962-217.761c-5.374-6.797-6.413-16.054-2.642-23.867s11.674-12.758 20.322-12.758h127.802v-609.997c0-24.928 20.232-45.16 45.16-45.16s45.16 20.232 45.16 45.16v609.997h127.802c8.671 0 16.551 4.968 20.322 12.758 3.771 7.813 2.732 17.070-2.642 23.867z" />
<glyph unicode="&#xe908;" glyph-name="arrow-downward" horiz-adv-x="416" d="M400.787 242.116c-3.771 7.813-11.674 12.758-20.322 12.758h-127.802v609.997c0 24.928-20.232 45.16-45.16 45.16s-45.16-20.232-45.16-45.16v-609.997h-127.802c-8.671 0-16.551-4.968-20.322-12.758s-2.732-17.070 2.642-23.867l172.962-217.783c4.268-5.374 10.816-8.535 17.68-8.535s13.412 3.161 17.68 8.535l172.962 217.783c5.374 6.797 6.413 16.054 2.642 23.867z" />
<glyph unicode="&#xe909;" glyph-name="chevron-left" horiz-adv-x="608" d="M501.425-35.053c-25.99 0-52.024 9.913-71.849 29.76l-381.985 382.007c-39.696 39.673-39.696 104.003 0 143.699l381.985 381.985c39.65 39.673 104.026 39.673 143.676 0 39.696-39.673 39.696-104.003 0-143.699l-310.113-310.135 310.113-310.158c39.696-39.673 39.696-104.003 0-143.676-19.825-19.87-45.837-29.783-71.827-29.783z" />
<glyph unicode="&#xe90a;" glyph-name="chevron-right" horiz-adv-x="608" d="M106.665-36.159c-25.99 0-52.024 9.913-71.849 29.76-39.696 39.673-39.696 104.003 0 143.676l310.135 310.158-310.135 310.158c-39.696 39.673-39.696 104.003 0 143.699 39.65 39.673 104.026 39.673 143.676 0l382.007-381.985c19.057-19.057 29.76-44.911 29.76-71.849s-10.703-52.792-29.76-71.849l-382.007-382.007c-19.803-19.848-45.837-29.76-71.827-29.76z" />
<glyph unicode="&#xe90b;" glyph-name="chevron-less" horiz-adv-x="992" d="M879.159 213.011c-25.99 0-52.024 9.913-71.849 29.76l-310.158 310.158-310.158-310.158c-39.65-39.696-103.981-39.696-143.676 0-39.696 39.673-39.696 104.003 0 143.676l381.985 382.030c19.057 19.057 44.889 29.76 71.849 29.76s52.792-10.703 71.849-29.76l381.985-382.007c39.696-39.673 39.696-104.003 0-143.676-19.825-19.87-45.837-29.783-71.827-29.783z" />
<glyph unicode="&#xe90c;" glyph-name="chevron-more" horiz-adv-x="992" d="M494.939 97.763c-26.938 0-52.792 10.703-71.849 29.76l-381.985 382.007c-39.696 39.673-39.696 104.003 0 143.699 39.65 39.673 104.026 39.673 143.676 0l310.158-310.135 310.135 310.135c39.65 39.673 104.026 39.673 143.676 0 39.696-39.673 39.696-104.003 0-143.699l-381.962-381.985c-19.057-19.057-44.889-29.783-71.849-29.783z" />
<glyph unicode="&#xe90d;" glyph-name="idea" d="M667.102 221.568h-310.090c-12.487 0-22.58-10.093-22.58-22.58v-49.247c0-68.643 34.818-92.442 71.014-98.607v-35.496c0-12.487 10.093-22.58 22.58-22.58h168.062c12.487 0 22.58 10.093 22.58 22.58v35.496c36.196 6.164 71.014 29.964 71.014 98.607v49.247c0 12.487-10.116 22.58-22.58 22.58zM644.522 149.742c0-41.321-12.216-55.253-48.434-55.253-12.487 0-22.58-10.093-22.58-22.58v-33.689h-122.903v33.689c0 12.487-10.093 22.58-22.58 22.58-36.218 0-48.434 13.932-48.434 55.253v26.667h264.908v-26.667zM508.568 712.614c-11.719 4.064-24.635-2.281-28.654-14.090l-54.26-159.143h98.923l-33.892-99.419c-4.042-11.809 2.281-24.635 14.090-28.654 2.393-0.835 4.855-1.219 7.271-1.219 9.393 0 18.177 5.916 21.361 15.287l54.26 159.143h-98.923l33.892 99.397c4.064 11.854-2.235 24.68-14.067 28.699zM143.495 576.909c0 12.464-10.093 22.58-22.58 22.58h-87.136c-12.487 0-22.58-10.116-22.58-22.58s10.093-22.58 22.58-22.58h87.136c12.487 0 22.58 10.093 22.58 22.58zM79.052 781.98l77.043-40.712c3.342-1.784 6.977-2.619 10.522-2.619 8.106 0 15.941 4.358 19.983 12.035 5.848 11.019 1.603 24.68-9.416 30.528l-77.065 40.712c-11.019 5.848-24.702 1.603-30.483-9.416-5.848-11.042-1.626-24.68 9.416-30.528zM156.073 412.527l-77.043-40.734c-11.019-5.826-15.241-19.486-9.393-30.528 4.042-7.655 11.854-12.013 19.983-12.013 3.545 0 7.158 0.835 10.545 2.619l77.043 40.734c11.019 5.826 15.241 19.486 9.393 30.528-5.826 10.996-19.464 15.287-30.528 9.393zM512.045 877.335c-166.866 0-302.594-135.751-302.594-302.594 0-98.087 47.147-189.175 126.741-246.099v-47.508c0-12.487 10.093-22.58 22.58-22.58s22.58 10.093 22.58 22.58v71.601l-10.184 6.684c-72.978 47.869-116.558 128.367-116.558 215.322 0 141.96 115.474 257.434 257.434 257.434 141.937 0 257.411-115.496 257.411-257.434 0-86.955-43.579-167.453-116.535-215.322l-10.184-6.684v-71.601c0-12.487 10.093-22.58 22.58-22.58s22.58 10.093 22.58 22.58v47.508c79.572 56.924 126.719 147.989 126.719 246.099 0.023 166.866-135.728 302.594-302.571 302.594zM990.333 599.489h-87.136c-12.487 0-22.58-10.116-22.58-22.58s10.093-22.58 22.58-22.58h87.136c12.487 0 22.58 10.116 22.58 22.58s-10.093 22.58-22.58 22.58zM857.473 738.649c3.545 0 7.158 0.835 10.522 2.619l77.065 40.712c11.019 5.826 15.264 19.486 9.416 30.528-5.803 11.019-19.486 15.264-30.505 9.416l-77.065-40.712c-11.019-5.826-15.264-19.486-9.416-30.528 4.042-7.655 11.877-12.035 19.983-12.035zM945.061 371.793l-77.065 40.734c-10.996 5.893-24.702 1.603-30.505-9.416-5.848-11.019-1.603-24.68 9.416-30.505l77.065-40.734c3.342-1.784 6.977-2.619 10.522-2.619 8.106 0 15.941 4.358 19.983 12.035 5.848 11.042 1.603 24.68-9.416 30.505z" />
<glyph unicode="&#xe90e;" glyph-name="develop" d="M176.417 693.873c18.087 0 32.741 14.654 32.741 32.741s-14.654 32.741-32.741 32.741c-18.087 0-32.763-14.654-32.763-32.741 0.023-18.087 14.677-32.741 32.763-32.741zM307.426 726.614c0-18.082-14.659-32.741-32.741-32.741s-32.741 14.659-32.741 32.741c0 18.082 14.659 32.741 32.741 32.741s32.741-14.659 32.741-32.741zM405.671 726.614c0-18.082-14.659-32.741-32.741-32.741s-32.741 14.659-32.741 32.741c0 18.082 14.659 32.741 32.741 32.741s32.741-14.659 32.741-32.741zM693.836 704.056h160.995c12.487 0 22.58 10.116 22.58 22.58s-10.093 22.58-22.58 22.58h-160.995c-12.487 0-22.58-10.116-22.58-22.58s10.116-22.58 22.58-22.58zM919.252 865.187l-814.503 0.023c-56.992-0.294-103.574-46.876-103.89-104.003v-626.593c0.316-56.924 46.899-103.529 103.981-103.845h814.526c56.924 0.316 103.529 46.876 103.868 103.958v626.571c-0.294 56.969-46.899 103.574-103.981 103.89zM104.929 820.050l814.187-0.023c32.357-0.181 58.798-26.622 58.956-58.843v-123.941h-932.055v123.851c0.181 32.334 26.599 58.776 58.911 58.956zM919.252 75.95h-814.278c-32.357 0.181-58.798 26.622-58.956 58.798v457.334h932.055v-457.199c-0.181-32.334-26.622-58.776-58.821-58.934zM554.902 508.717c-12.125 3.093-24.364-4.335-27.389-16.461l-76.14-305.439c-3.003-12.103 4.358-24.364 16.461-27.389 1.829-0.452 3.681-0.655 5.487-0.655 10.116 0 19.328 6.864 21.903 17.116l76.14 305.461c2.981 12.080-4.381 24.341-16.461 27.367zM397.294 469.835c-8.829 8.829-23.099 8.829-31.928 0l-116.422-116.422c-4.245-4.245-6.616-9.958-6.616-15.964s2.371-11.742 6.616-15.964l116.422-116.4c4.403-4.403 10.184-6.616 15.964-6.616s11.561 2.213 15.964 6.616c8.829 8.829 8.829 23.099 0 31.928l-100.458 100.436 100.458 100.458c8.806 8.829 8.806 23.099 0 31.928zM655.947 469.496c-8.829 8.829-23.099 8.829-31.928 0s-8.829-23.099 0-31.928l100.458-100.458-100.458-100.458c-8.829-8.829-8.829-23.099 0-31.928 4.403-4.403 10.184-6.616 15.964-6.616s11.561 2.213 15.964 6.616l116.422 116.422c4.245 4.245 6.616 9.958 6.616 15.964s-2.371 11.742-6.616 15.964l-116.422 116.422z" />
<glyph unicode="&#xe90f;" glyph-name="spaceship" d="M638.47 714.037c-18.651-18.651-28.925-43.444-28.925-69.817s10.274-51.166 28.925-69.817c19.261-19.261 44.528-28.88 69.817-28.88s50.556 9.619 69.817 28.88c18.651 18.651 28.925 43.444 28.925 69.817s-10.274 51.166-28.925 69.817c-38.476 38.499-101.090 38.499-139.634 0zM746.176 606.353c-20.909-20.886-54.869-20.886-75.756 0-10.116 10.116-15.693 23.573-15.693 37.889s5.577 27.751 15.693 37.889c10.455 10.432 24.161 15.67 37.889 15.67s27.435-5.216 37.889-15.67c10.116-10.116 15.693-23.573 15.693-37.889s-5.6-27.773-15.716-37.889zM308.51 131.768l-37.799-37.776c-24.341-24.319-38.002-73.543-13.661-128.706 3.726-8.445 11.99-13.48 20.683-13.48 3.048 0 6.119 0.61 9.077 1.919 11.425 5.035 16.574 18.357 11.561 29.76-16.687 37.821-6.593 67.695 4.268 78.556l37.799 37.799c8.829 8.829 8.829 23.099 0 31.928s-23.122 8.829-31.928 0zM979.179 896.212c-1.468 9.777-9.145 17.432-18.922 18.922-9.596 1.468-236.728 34.186-374.308-103.371-14.88-14.88-29.602-30.031-44.099-45.318-37.821 9.551-243.096 48.75-405.016-170.637-4.448-6.029-5.622-13.864-3.116-20.932 2.484-7.068 8.309-12.442 15.558-14.338 1.084-0.271 101.406-26.983 164.314-79.797-5.622-9.145-10.974-18.087-15.67-26.554-2.19-3.906-3.161-8.4-2.755-12.871 0.181-2.055 1.152-10.296 6.029-23.551l-45.363-45.386c-20.209-20.209-25.606-61.756-2.281-85.104l97.816-97.816c10.658-10.658 25.109-15.332 39.605-15.332 17.228 0 34.502 6.616 45.476 17.567l45.408 45.386c13.254-4.855 21.519-5.848 23.551-6.029 0.632-0.068 1.287-0.090 1.919-0.090 3.839 0 7.609 0.971 10.951 2.845 8.467 4.697 17.409 10.048 26.554 15.67 52.679-62.772 79.527-163.23 79.775-164.314 1.919-7.248 7.271-13.074 14.338-15.558 2.439-0.881 5.013-1.31 7.519-1.31 4.764 0 9.484 1.49 13.412 4.403 219.364 161.921 180.165 367.24 170.637 405.039 15.287 14.496 30.438 29.218 45.295 44.099 137.557 137.602 104.839 364.779 103.371 374.375zM192.991 594.273c120.193 143.676 255.56 142.344 313.071 133.583-65.73-72.324-124.754-145.821-167.746-209.022-47.192 38.025-108.406 62.817-145.324 75.44zM404.542 223.714c-3.545-3.477-16.709-6.729-21.225-2.281l-97.816 97.816c-4.516 4.516-1.242 17.725 2.303 21.248l35.044 35.044c11.832-18.403 28.609-39.989 52.702-64.082s45.679-40.892 64.082-52.702l-35.089-35.044zM658.318 128.968c-12.622 36.918-37.415 98.11-75.417 145.302 63.111 42.97 136.518 101.881 208.751 167.521 8.242-57.579 8.874-193.555-133.335-312.822zM503.668 277.476c-13.412 3.951-48.389 18.064-96.236 65.911-48.050 48.050-62.072 83.117-65.933 96.168 44.076 76.388 144.737 208.639 276.356 340.28 101.090 101.068 265.45 96.845 318.513 92.465 4.448-53.063 8.851-217.151-92.51-318.467-131.528-131.573-263.779-232.212-340.189-276.356zM195.813 244.464c8.829 8.829 8.829 23.099 0 31.928s-23.099 8.829-31.928 0l-37.821-37.799c-10.816-10.861-40.689-21.022-78.533-4.268-11.358 4.99-24.748-0.158-29.76-11.561s0.135-24.748 11.561-29.76c20.345-8.964 39.921-12.78 57.714-12.78 30.415 0 55.66 11.109 70.991 26.464l37.776 37.776zM268.137 204.069c-8.829 8.829-23.099 8.829-31.928 0l-94.091-94.091c-8.829-8.829-8.829-23.099 0-31.928 4.403-4.403 10.184-6.616 15.964-6.616s11.561 2.213 15.964 6.616l94.091 94.091c8.806 8.829 8.806 23.122 0 31.928z" />
<glyph unicode="&#xe910;" glyph-name="devices" d="M959.76 567.177h-48.095v192.878c-0.271 44.911-37.031 81.649-82.033 81.875h-745.477c-44.934-0.248-81.694-36.963-81.943-82.010v-492.559c0.248-44.911 37.009-81.672 82.055-81.92h207.735l-24.206-86.188h-72.594c-12.487 0-22.58-10.093-22.58-22.58s10.093-22.58 22.58-22.58h764.692c33.689 0.203 61.237 27.773 61.417 61.575v390.046c-0.181 33.689-27.728 61.259-61.553 61.463zM715.987 505.601l-0.023-389.978c0-0.045 0-0.068 0-0.113 0.023-5.668 1.084-11.064 2.574-16.303h-231.919c-9.055 0.068-16.461 7.451-16.529 16.483v497.459c0.068 9.077 7.474 16.483 16.416 16.551h363.514c9.055-0.045 16.461-7.474 16.506-16.416v-46.108h-89.055c-33.734-0.181-61.305-27.751-61.485-61.575zM84.381 230.578c-20.299 0.113-36.918 16.709-37.031 36.896v492.31c0.135 20.277 16.709 36.873 36.896 36.986h745.273c20.254-0.090 36.85-16.687 36.986-36.85v-87.655c-5.261 1.49-10.68 2.552-16.393 2.597h-363.763c-33.667-0.181-61.237-27.751-61.44-61.575v-382.707h-340.528zM338.902 185.418h86.007v-69.772c0-0.045 0-0.090 0-0.113 0.023-5.668 1.084-11.064 2.574-16.303h-112.787l24.206 86.188zM976.131 115.736c-0.045-9.032-7.451-16.461-16.393-16.506h-182.085c-9.055 0.068-16.461 7.451-16.529 16.483l0.023 389.752c0.045 9.077 7.451 16.483 16.416 16.529h182.062c9.055-0.045 16.461-7.474 16.506-16.416v-389.843zM868.627 187.857c-15.038 0-27.231-12.193-27.231-27.231s12.193-27.231 27.231-27.231 27.231 12.193 27.231 27.231-12.193 27.231-27.231 27.231zM668.276 187.857c-15.038 0-27.231-12.193-27.231-27.231s12.193-27.231 27.231-27.231 27.231 12.193 27.231 27.231-12.193 27.231-27.231 27.231z" />
<glyph unicode="&#xe911;" glyph-name="astronaut-head" horiz-adv-x="960" d="M480.045 729.527c-98.81 0-282.723 0-282.723-185.81 0-155.892 126.809-282.723 282.723-282.723s282.723 126.831 282.723 282.723c0 185.81-183.914 185.81-282.723 185.81zM480.045 306.153c-130.986 0-237.563 106.577-237.563 237.563 0 117.641 87.091 140.65 237.563 140.65s237.563-23.009 237.563-140.65c0-130.986-106.555-237.563-237.563-237.563zM918.073 823.233c-12.487 0-22.58-10.116-22.58-22.58v-136.428c-3.071 0.542-6.209 0.948-9.438 0.948h-44.144c-50.895 151.218-193.736 260.572-361.889 260.572s-310.971-109.355-361.866-260.572h-44.144c-30.099 0-54.576-24.477-54.576-54.576v-138.483c0-30.099 24.477-54.576 54.576-54.576h45.882c19.87-56.495 52.453-106.961 94.587-147.831-41.728-39.492-141.102-143.563-176.372-269.627-3.342-12.013 3.658-24.477 15.648-27.818 2.032-0.564 4.087-0.835 6.119-0.835 9.867 0 18.945 6.526 21.722 16.483 32.944 117.709 131.573 218.529 167.475 252.263 58.595-44.686 130.286-72.685 208.345-77.291v-123.715c0-12.487 10.093-22.58 22.58-22.58s22.58 10.093 22.58 22.58v123.715c78.059 4.606 149.773 32.605 208.368 77.291 35.902-33.734 134.531-134.531 167.498-252.263 2.777-9.958 11.854-16.483 21.722-16.483 2.032 0 4.087 0.271 6.119 0.835 12.013 3.342 19.035 15.806 15.648 27.818-35.292 126.064-134.644 230.157-176.372 269.627 42.157 40.847 74.717 91.313 94.587 147.808h45.882c30.099 0 54.598 24.477 54.598 54.576v328.561c0.023 12.464-10.071 22.58-22.557 22.58zM74.013 462.677c-5.103 0-9.416 4.313-9.416 9.416v138.483c0 5.103 4.313 9.416 9.416 9.416h31.702c-5.013-24.657-7.677-50.173-7.677-76.275 0-27.818 3.184-54.914 8.851-81.062h-32.876zM480.045 206.869c-185.743 0-336.847 151.105-336.847 336.847s151.105 336.847 336.847 336.847 336.847-151.105 336.847-336.847-151.105-336.847-336.847-336.847zM895.493 472.093c0-5.103-4.313-9.416-9.438-9.416h-32.854c5.668 26.148 8.851 53.221 8.851 81.062 0 26.125-2.664 51.618-7.677 76.275h31.702c5.126 0 9.438-4.313 9.438-9.416v-138.505z" />
<glyph unicode="&#xe912;" glyph-name="code" d="M731.274 234.213h-251.27c-12.487 0-22.58-10.093-22.58-22.58s10.093-22.58 22.58-22.58h251.27c12.487 0 22.58 10.093 22.58 22.58s-10.093 22.58-22.58 22.58zM919.252 865.187l-814.503 0.023c-56.969-0.294-103.597-46.876-103.89-104.003v-626.593c0.339-56.947 46.944-103.529 104.003-103.845h814.503c56.924 0.316 103.552 46.876 103.89 103.958v626.571c-0.316 56.969-46.921 103.574-104.003 103.89zM104.952 820.050l814.165-0.023c32.357-0.181 58.798-26.622 58.979-58.843v-101.361h-932.077v101.271c0.158 32.334 26.599 58.776 58.934 58.956zM919.252 75.95h-814.255c-32.357 0.181-58.798 26.622-58.979 58.798v479.914h932.077v-479.778c-0.203-32.334-26.644-58.776-58.843-58.934zM254.589 501.243c-8.829 8.829-23.099 8.829-31.928 0s-8.829-23.099 0-31.928l120.848-120.848-120.848-120.848c-8.829-8.829-8.829-23.099 0-31.928 4.403-4.403 10.184-6.616 15.964-6.616s11.561 2.213 15.964 6.616l136.812 136.812c8.829 8.829 8.829 23.099 0 31.928l-136.812 136.812z" />
<glyph unicode="&#xe913;" glyph-name="balance" d="M173.956 426.165c91.584 0 166.053 74.491 166.053 166.053s-74.469 166.053-166.053 166.053c-91.562 0-166.053-74.491-166.053-166.053s74.514-166.053 166.053-166.053zM173.956 713.111c66.656 0 120.893-54.237 120.893-120.893s-54.237-120.893-120.893-120.893-120.893 54.237-120.893 120.893c0.023 66.679 54.237 120.893 120.893 120.893zM850.135 426.165c91.584 0 166.053 74.491 166.053 166.053s-74.491 166.053-166.053 166.053-166.053-74.491-166.053-166.053 74.469-166.053 166.053-166.053zM850.135 713.111c66.656 0 120.893-54.237 120.893-120.893s-54.237-120.893-120.893-120.893-120.893 54.237-120.893 120.893c-0.023 66.679 54.214 120.893 120.893 120.893zM993.607 396.382h-963.102c-12.487 0-22.58-10.093-22.58-22.58s10.093-22.58 22.58-22.58h444.463l-93.21-180.549c-3.613-7.022-3.297-15.4 0.768-22.106 4.11-6.729 11.425-10.816 19.283-10.816h220.47c7.88 0 15.196 4.11 19.283 10.816 4.087 6.729 4.381 15.106 0.768 22.106l-93.21 180.549h444.486c12.487 0 22.58 10.093 22.58 22.58s-10.093 22.58-22.58 22.58zM438.886 182.889l73.159 141.689 73.159-141.689h-146.318z" />
<glyph unicode="&#xe914;" glyph-name="focus" d="M357.079 456.671c-0.339 0.858-0.79 1.603-1.219 2.416-0.497 0.971-0.813 2.010-1.468 2.913l-92.758 127.802c-7.338 10.071-21.406 12.351-31.544 5.013-10.071-7.316-12.329-21.451-5.013-31.522l66.769-91.968h-253.369c-12.487 0-22.58-10.116-22.58-22.58s10.093-22.58 22.58-22.58h253.347l-66.769-91.945c-7.316-10.093-5.080-24.206 5.013-31.544 4.019-2.913 8.671-4.29 13.254-4.29 7 0 13.864 3.229 18.312 9.303l92.758 127.802c0.655 0.903 0.971 1.942 1.468 2.913 0.429 0.813 0.903 1.558 1.219 2.416 1.942 5.126 1.942 10.725 0 15.851zM525.322 291.092c-0.903 0.655-1.942 0.971-2.913 1.468-0.813 0.429-1.558 0.903-2.416 1.219-5.148 1.942-10.725 1.942-15.851 0-0.881-0.339-1.603-0.79-2.416-1.219-0.971-0.497-2.010-0.813-2.913-1.468l-127.802-92.758c-10.071-7.338-12.329-21.451-5.013-31.544 7.338-10.071 21.428-12.374 31.544-5.013l91.945 66.769v-253.347c0-12.487 10.093-22.58 22.58-22.58s22.58 10.093 22.58 22.58v253.347l91.945-66.769c4.019-2.913 8.671-4.29 13.254-4.29 7 0 13.864 3.229 18.312 9.303 7.316 10.093 5.080 24.206-5.013 31.544l-127.825 92.758zM985.637 471.325h-253.369l66.791 91.968c7.316 10.093 5.080 24.206-5.013 31.522-10.138 7.361-24.206 5.080-31.544-5.013l-92.781-127.802c-0.655-0.903-0.971-1.942-1.468-2.913-0.429-0.813-0.903-1.535-1.219-2.416-1.942-5.148-1.942-10.725 0-15.874 0.339-0.858 0.79-1.603 1.219-2.416 0.497-0.971 0.813-2.010 1.468-2.913l92.781-127.802c4.426-6.097 11.313-9.303 18.312-9.303 4.584 0 9.235 1.4 13.254 4.29 10.071 7.338 12.329 21.451 5.013 31.544l-66.769 91.945h253.369c12.487 0 22.58 10.116 22.58 22.58s-10.138 22.603-22.625 22.603zM626.571 735.714l-91.945-66.746v253.347c0 12.464-10.093 22.58-22.58 22.58s-22.58-10.116-22.58-22.58v-253.347l-91.945 66.746c-10.138 7.361-24.228 5.080-31.544-5.013s-5.080-24.206 5.013-31.522l127.802-92.781c0.903-0.655 1.942-0.971 2.913-1.468 0.813-0.429 1.558-0.903 2.439-1.242 2.574-0.971 5.216-1.603 7.926-1.603s5.351 0.632 7.926 1.603c0.881 0.339 1.626 0.813 2.439 1.242 0.971 0.497 1.987 0.813 2.89 1.468l127.802 92.781c10.071 7.316 12.329 21.451 5.013 31.522-7.338 10.093-21.428 12.374-31.567 5.013z" />
<glyph unicode="&#xe915;" glyph-name="mobile" horiz-adv-x="640" d="M320.045 135.020c31.409 0 56.856-25.47 56.856-56.856s-25.47-56.856-56.856-56.856-56.856 25.47-56.856 56.856 25.448 56.856 56.856 56.856zM115.652-63.21c-57.082 0.316-103.687 46.921-103.981 103.89 0 0.045 0 0.090 0 0.135l0.023 814.368c0.316 57.082 46.921 103.687 103.89 104.003h408.923c57.059-0.316 103.664-46.921 103.958-103.89v-814.503c-0.316-57.059-46.876-103.687-103.845-104.003h-408.968zM56.808 40.861c0.226-32.312 26.644-58.73 58.956-58.888h408.719c32.199 0.203 58.64 26.644 58.798 58.979v814.255c-0.181 32.199-26.622 58.663-58.934 58.843h-408.674c-32.222-0.181-58.685-26.622-58.843-58.956l-0.023-814.232zM387.672 815.985h-135.254c-12.487 0-22.58 10.116-22.58 22.58s10.093 22.58 22.58 22.58h135.254c12.487 0 22.58-10.116 22.58-22.58s-10.093-22.58-22.58-22.58z" />
<glyph unicode="&#xe916;" glyph-name="mail" d="M919.252 769.177l-814.413 0.023c-0.045 0-0.090 0-0.113 0-56.969-0.294-103.574-46.899-103.89-104.003v-434.573c0.339-56.947 46.921-103.529 103.981-103.845h814.526c56.947 0.316 103.552 46.899 103.868 103.958v434.551c-0.271 56.969-46.876 103.574-103.958 103.89zM104.929 724.040l814.187-0.023c5.51-0.023 10.748-1.061 15.806-2.506l-422.832-303.632-422.945 303.655c5.058 1.445 10.296 2.484 15.783 2.506zM978.072 230.894c-0.181-32.334-26.622-58.776-58.821-58.934h-814.278c-32.334 0.181-58.776 26.622-58.956 58.798v434.325c0.045 9.709 2.687 18.741 6.932 26.848l445.976-320.183c3.929-2.822 8.558-4.245 13.164-4.245s9.235 1.4 13.164 4.245l445.909 320.183c4.222-8.084 6.864-17.093 6.932-26.757v-434.28z" />
<glyph unicode="&#xe917;" glyph-name="location" horiz-adv-x="768" d="M384.068 783.606c-0.023 0-0.023 0-0.045 0-108.564-0.113-196.965-88.513-197.078-197.123 0.113-108.564 88.513-196.965 197.1-197.078 108.587 0.113 196.987 88.491 197.1 197.1-0.113 108.564-88.513 196.987-197.078 197.1zM384.068 434.542c-83.704 0.068-151.895 68.237-151.94 151.918 0.068 83.704 68.214 151.873 151.94 151.963 83.704-0.090 151.895-68.259 151.94-151.94-0.090-83.704-68.259-151.85-151.94-151.94zM384 958.081c-204.461-0.339-371.079-166.933-371.395-371.462 0-349.718 274.098-577.482 358.095-638.922 3.974-2.913 8.671-4.358 13.345-4.358 4.697 0 9.393 1.445 13.39 4.381 83.997 61.756 358.073 290.401 358.073 638.944-0.339 204.484-166.956 371.079-371.508 371.417zM384.023-5.857c-91.878 70.336-326.257 280.578-326.257 592.452 0.271 179.646 146.679 326.032 326.235 326.325 179.669-0.271 326.054-146.657 326.348-326.28 0-310.835-234.493-521.845-326.325-592.497z" />
<glyph unicode="&#xe918;" glyph-name="facebook" horiz-adv-x="576" d="M523.418 388.637l28.067 183.056h-175.649v118.793c0 50.082 24.544 98.9 103.213 98.9h79.865v155.847c0 0-72.482 12.374-141.757 12.374-144.67 0-239.212-87.678-239.212-246.392v-139.521h-160.792v-183.056h160.792v-442.544c32.244-5.058 65.279-7.7 98.945-7.7s66.701 2.642 98.945 7.7v442.544h147.582z" />
<glyph unicode="&#xe919;" glyph-name="twitter" horiz-adv-x="928" d="M290.415 75.228c345.992 0 535.325 286.923 535.325 535.325 0 8.061 0 16.145-0.361 24.206 36.692 26.419 68.62 59.814 93.933 97.59-33.757-15.038-70.088-24.951-108.248-29.715 38.883 23.122 68.62 60.176 82.914 104.206-36.331-21.654-76.681-37.054-119.606-45.499-34.48 36.692-83.297 59.43-137.218 59.43-103.845 0-188.226-84.381-188.226-188.226 0-14.677 1.829-28.993 4.764-42.924-156.298 7.7-295.007 82.914-387.833 196.671-16.122-27.886-25.312-60.176-25.312-94.655 0-65.301 33.396-122.925 83.659-156.682-30.822 1.106-59.814 9.529-85.126 23.483v-2.574c0-90.997 64.94-167.317 150.811-184.546-15.783-4.403-32.289-6.593-49.54-6.593-12.103 0-23.844 1.106-35.225 3.297 23.844-74.852 93.571-129.157 175.74-130.625-64.579-50.624-145.663-80.723-233.725-80.723-15.038 0-30.076 0.745-44.753 2.574 82.936-52.837 181.994-84.020 288.030-84.020z" />
<glyph unicode="&#xe91a;" glyph-name="instagram" horiz-adv-x="896" d="M448.052 882.858c-118.101 0-132.9-0.505-179.296-2.616-46.281-2.111-77.9-9.454-105.549-20.215-28.59-11.106-52.843-25.974-77.028-50.159s-39.053-48.415-50.159-77.028c-10.761-27.649-18.104-59.268-20.215-105.549-2.111-46.373-2.616-61.196-2.616-179.296s0.505-132.9 2.616-179.296c2.111-46.281 9.454-77.9 20.215-105.549 11.106-28.59 25.974-52.843 50.159-77.028s48.415-39.053 77.028-50.159c27.672-10.738 59.268-18.104 105.549-20.215 46.373-2.111 61.196-2.616 179.296-2.616s132.9 0.505 179.296 2.616c46.281 2.111 77.9 9.454 105.549 20.215 28.59 11.106 52.843 25.974 77.028 50.159s39.053 48.438 50.159 77.028c10.738 27.649 18.104 59.268 20.215 105.549 2.111 46.373 2.616 61.196 2.616 179.296s-0.505 132.9-2.616 179.296c-2.111 46.281-9.454 77.9-20.215 105.549-11.106 28.59-25.974 52.843-50.159 77.028s-48.438 39.053-77.028 50.159c-27.649 10.761-59.268 18.104-105.549 20.215-46.396 2.111-61.196 2.616-179.296 2.616zM448.052 804.499c116.104 0 129.872-0.436 175.717-2.524 42.403-1.927 65.418-9.018 80.745-14.983 20.307-7.893 34.785-17.324 49.998-32.537s24.643-29.714 32.537-49.998c5.966-15.328 13.033-38.342 14.983-80.745 2.088-45.845 2.547-59.612 2.547-175.717s-0.436-129.872-2.547-175.717c-1.927-42.403-9.018-65.418-14.983-80.745-7.893-20.307-17.324-34.785-32.537-49.998s-29.691-24.643-49.998-32.537c-15.328-5.966-38.342-13.033-80.745-14.983-45.845-2.088-59.589-2.547-175.717-2.547s-129.872 0.436-175.717 2.547c-42.403 1.927-65.418 9.018-80.745 14.983-20.307 7.893-34.785 17.301-49.998 32.537-15.213 15.213-24.643 29.691-32.537 49.998-5.966 15.328-13.033 38.342-14.983 80.745-2.088 45.845-2.524 59.612-2.524 175.717s0.436 129.872 2.524 175.717c1.927 42.403 9.018 65.418 14.983 80.745 7.893 20.307 17.301 34.785 32.537 49.998 15.213 15.213 29.714 24.643 49.998 32.537 15.328 5.943 38.342 13.033 80.745 14.983 45.845 2.088 59.612 2.524 175.717 2.524zM448.052 303.048c-80.057 0-144.947 64.89-144.947 144.947s64.89 144.947 144.947 144.947c80.057 0 144.947-64.89 144.947-144.947s-64.89-144.947-144.947-144.947zM448.052 671.301c-123.332 0-223.306-99.974-223.306-223.306s99.974-223.306 223.306-223.306c123.332 0 223.306 99.974 223.306 223.306s-99.974 223.306-223.306 223.306zM732.369 680.135c0-28.82-23.359-52.178-52.178-52.178s-52.178 23.359-52.178 52.178c0 28.82 23.359 52.178 52.178 52.178 28.797 0 52.178-23.359 52.178-52.178z" />
<glyph unicode="&#xe91b;" glyph-name="youtube" d="M1000.359 693.308c-11.719 43.85-46.244 78.375-90.117 90.117-79.481 21.293-398.197 21.293-398.197 21.293s-318.716 0-398.197-21.293c-43.85-11.719-78.375-46.266-90.094-90.117-21.293-79.481-21.293-245.331-21.293-245.331s0-165.827 21.293-245.308c11.719-43.85 46.266-78.398 90.094-90.117 79.481-21.293 398.197-21.293 398.197-21.293s318.716 0 398.197 21.293c43.85 11.719 78.398 46.266 90.117 90.117 21.293 79.481 21.293 245.308 21.293 245.308s0 165.85-21.293 245.331v0zM410.119 295.111v305.777l264.795-152.889-264.795-152.889z" />
<glyph unicode="&#xe91c;" glyph-name="whatsapp" d="M745.544 346.345c-12.69 6.345-75.011 37.009-86.639 41.254-11.629 4.222-20.074 6.345-28.518-6.345s-32.763-41.254-40.147-49.721c-7.406-8.467-14.79-9.529-27.48-3.184s-53.537 19.735-101.971 62.93c-37.686 33.622-63.133 75.146-70.54 87.836s-0.79 19.554 5.555 25.877c5.713 5.69 12.69 14.812 19.012 22.219 6.345 7.406 8.445 12.69 12.69 21.157 4.222 8.467 2.123 15.874-1.061 22.219-3.161 6.345-28.518 68.756-39.086 94.158-10.296 24.725-20.751 21.383-28.518 21.767-7.384 0.361-15.851 0.452-24.296 0.452s-22.196-3.184-33.825-15.874c-11.629-12.69-44.37-43.376-44.37-105.787s45.431-122.699 51.776-131.167c6.345-8.467 89.417-136.541 216.609-191.455 30.257-13.074 53.876-20.864 72.278-26.712 30.37-9.642 58.008-8.287 79.865-5.035 24.364 3.635 75.011 30.664 85.578 60.288s10.567 55.005 7.406 60.311c-3.184 5.306-11.651 8.467-24.319 14.812zM514.19 30.452h-0.181c-75.688 0.023-149.931 20.367-214.667 58.798l-15.4 9.145-159.64-41.886 42.608 155.643-10.025 15.964c-42.224 67.153-64.533 144.76-64.488 224.467 0.090 232.551 189.288 421.748 421.951 421.748 112.651-0.045 218.551-43.963 298.191-123.693s123.467-185.697 123.422-298.394c-0.090-232.573-189.31-421.793-421.771-421.793zM873.143 811.221c-95.807 95.92-223.225 148.779-358.976 148.824-279.72 0-507.371-227.628-507.484-507.439-0.045-89.439 23.325-176.733 67.74-253.708l-71.985-262.943 269.017 70.562c74.13-40.441 157.585-61.734 242.508-61.756h0.203c279.675 0 507.349 227.651 507.461 507.461 0.068 135.593-52.656 263.079-148.486 358.998z" />
<glyph unicode="&#xe91d;" glyph-name="linkedin" horiz-adv-x="896" d="M885.847 59.038v320.183c0 157.224-33.938 278.117-217.671 278.117-88.265 0-147.47-48.411-171.675-94.294h-2.484v79.82h-173.933v-583.804h181.227v288.73c0 76.162 14.406 149.953 108.813 149.953 93.12 0 94.271-87.091 94.271-154.785v-283.898l181.452-0.023zM206.282 642.842h-181.633v-583.804h181.633v583.804zM115.51 933.040c-58.279 0-105.268-47.147-105.268-105.222 0-58.098 46.989-105.222 105.268-105.222 58.053 0 105.177 47.147 105.177 105.222 0 58.098-47.124 105.222-105.177 105.222v0z" />
<glyph unicode="&#xe91e;" glyph-name="zoom" d="M763.676 551.777l225.664 164.946c19.757 16.099 34.751 12.442 34.751-17.183v-502.9c0-33.283-18.651-29.625-34.751-17.183l-225.664 164.946v207.374zM0 698.073v-374.533c0.361-84.855 69.501-153.25 154.356-152.889h546.796c15.354 0 27.796 12.442 28.157 27.796v374.895c-0.361 84.855-69.501 153.25-154.356 152.889h-546.796c-15.354-0.361-27.796-12.419-28.157-28.157z" />
<glyph unicode="&#xe91f;" glyph-name="vimeo" horiz-adv-x="992" d="M985.556 666.145c-4.358-95.581-71.149-226.477-200.239-392.62-133.425-173.527-246.37-260.324-338.789-260.324-57.172 0-105.584 52.837-145.144 158.579-26.419 96.913-52.837 193.713-79.233 290.626-29.331 105.674-60.83 158.556-94.542 158.556-7.316 0-33.057-15.49-77.065-46.266l-46.153 59.521c48.411 42.541 96.213 85.149 143.225 127.825 64.646 55.818 113.125 85.217 145.505 88.175 76.41 7.338 123.422-44.957 141.079-156.727 19.057-120.69 32.267-195.745 39.65-225.099 21.993-100.119 46.266-150.134 72.685-150.134 20.57 0 51.46 32.515 92.6 97.41 41.095 64.985 63.133 114.39 66.091 148.282 5.871 56.066-16.167 84.155-66.091 84.155-23.528 0-47.802-5.374-72.662-16.099 48.186 158.037 140.357 234.854 276.469 230.519 100.887-2.981 148.418-68.44 142.615-196.378z" />
<glyph unicode="&#xe920;" glyph-name="apple" horiz-adv-x="800" d="M666.037 438.562c1.016 75.936 40.825 146.047 105.516 185.833-41.028 58.572-107.3 94.384-178.788 96.62-75.191 7.88-148.079-45.002-186.42-45.002-39.063 0-98.042 44.212-161.582 42.902-83.591-2.71-159.618-49.089-200.261-122.157-86.594-149.931-21.993-370.311 60.966-491.633 41.502-59.34 90.004-125.635 153.476-123.286 62.117 2.574 85.307 39.605 160.272 39.605 74.288 0 96.055-39.605 160.792-38.138 66.656 1.061 108.632 59.611 148.689 119.516 29.828 42.292 52.769 89.033 68.011 138.483-79.233 33.509-130.715 111.206-130.67 197.258zM543.699 800.789c36.331 43.624 54.237 99.69 49.879 156.298-55.501-5.826-106.781-32.357-143.608-74.288-36.376-41.389-54.801-95.536-51.234-150.518 56.292-0.587 109.716 24.68 144.963 68.508z" />
<glyph unicode="&#xe921;" glyph-name="android" horiz-adv-x="864" d="M254.206 942.568l47.215-82.033c-86.097-39.379-142.096-124.528-144.105-219.183h549.438c-2.032 94.655-58.008 179.804-144.105 219.183l47.169 82.033c1.287 2.439 0.406 5.442-2.010 6.774-2.439 1.355-5.51 0.61-7.022-1.716l-47.915-82.733c-76.998 33.847-164.675 33.847-241.673 0l-47.915 82.733c-1.558 2.416-4.764 3.116-7.18 1.581-2.235-1.4-3.026-4.268-1.897-6.639v0zM301.42 783.696c14.406-0.023 26.102-11.696 26.125-26.125-0.045-14.429-11.787-26.080-26.193-26.035-14.361 0.045-25.99 11.674-26.035 26.035 0.023 14.429 11.696 26.102 26.102 26.125v0zM562.715 783.696c14.429-0.023 26.102-11.696 26.148-26.125-0.519-14.429-12.667-25.696-27.096-25.177-13.683 0.497-24.68 11.493-25.177 25.177 0.045 14.429 11.719 26.102 26.125 26.125v0zM155.125 609.356v-416.803c2.981-24.273 21.564-43.715 45.702-47.757h65.369v-142.118c-3.184-32.673 20.706-61.734 53.379-64.94 32.673-3.184 61.734 20.706 64.94 53.379 0.384 3.839 0.384 7.7 0 11.561v142.118h94.903v-142.118c-3.839-32.786 19.645-62.456 52.408-66.295 32.786-3.839 62.456 19.645 66.295 52.408 0.542 4.606 0.542 9.258 0 13.864v142.118h64.985c24.115 4.064 42.699 23.483 45.702 47.757v416.826h-553.683zM63.992 618.095v0c34.344-1.784 60.808-30.98 59.182-65.346v-247.318c1.603-34.367-24.838-63.563-59.182-65.346v0c-34.367 1.761-60.83 30.98-59.227 65.346v247.318c-1.626 34.367 24.861 63.563 59.227 65.346zM800.121 618.095v0c34.367-1.761 60.83-30.98 59.227-65.346v-247.318c1.603-34.367-24.861-63.585-59.227-65.346v0c-34.344 1.784-60.808 30.98-59.182 65.346v247.318c-1.626 34.344 24.815 63.563 59.182 65.346z" />
<glyph unicode="&#xe922;" glyph-name="telegram" d="M467.739 466.787c-25.922-17.274-51.505-34.525-77.427-51.505-26.215-17.296-53.605-33.057-80.114-49.744-28.609-17.567-59.272-23.822-91.72-18.764-64.917 9.845-125.973 32.176-184.659 61.372-5.961 2.981-11.629 7.135-16.077 12.193-7.135 8.355-7.135 15.783 0 24.115 5.645 6.864 13.412 11.019 20.841 15.196 34.547 19.057 70.291 36.038 106.013 52.408 28.609 13.412 57.489 25.628 86.368 38.431 25.312 10.996 50.624 22.309 75.936 33.057 40.508 17.274 81.017 34.254 121.819 51.211 97.387 40.802 195.362 80.407 293.652 119.719 36.941 14.609 73.859 28.88 111.093 43.173 16.664 6.255 33.938 10.138 51.505 11.019 14.316 0.587 28.609-0.294 39.921-10.432 9.235-8.332 13.412-18.741 12.509-31.567-0.881-12.803-1.784-25.628-2.981-38.138-2.371-27.412-5.961-54.801-10.116-82.214-7.451-50.624-14.88-101.248-22.625-152.166-3.568-23.844-7.451-47.373-11.313-71.172-0.316-2.1-0.316-4.471-0.61-6.548-4.155-23.844-8.016-47.373-12.193-71.172-11.629-67.92-22.941-135.502-34.547-203.423-2.371-14-4.471-27.977-7.451-41.705-10.116-50.331-69.682-73.565-112.267-44.37-73.565 50.331-147.718 100.074-221.599 150.089-22.332 15.196-44.076 31.273-66.701 45.86-19.667 12.803-24.431 35.428-18.764 54.192 6.232 20.254 18.764 36.038 33.96 50.037 28.293 26.215 55.976 52.408 84.291 78.917l1.784 0.903c53.605 48.84 107.797 96.778 156.953 149.795 3.568 3.884 5.645 8.038 6.842 12.803 1.197 4.448 3.297 9.529-0.881 13.412-3.884 3.568-8.942 1.784-13.412 0.294-11.313-3.568-21.744-9.822-31.86-16.077-40.508-25.628-78.917-54.192-118.229-81.604-22.67-15.151-45.295-31.522-67.943-47.599v0z" />
<glyph unicode="&#xe923;" glyph-name="asterisk" d="M963.802 493.16h-342.718l242.328 242.35c17.635 17.635 17.635 46.221 0 63.856s-46.221 17.635-63.856 0l-242.35-242.373v342.763c0 24.928-20.232 45.16-45.16 45.16s-45.16-20.232-45.16-45.16v-342.718l-242.35 242.328c-17.635 17.635-46.221 17.635-63.856 0s-17.635-46.221 0-63.856l242.328-242.328h-342.718c-24.928 0-45.16-20.232-45.16-45.16s20.232-45.16 45.16-45.16h342.763l-242.373-242.373c-17.635-17.635-17.635-46.221 0-63.856 8.829-8.829 20.367-13.232 31.928-13.232s23.099 4.403 31.928 13.232l242.328 242.328v-342.718c0-24.928 20.232-45.16 45.16-45.16s45.16 20.232 45.16 45.16v342.741l242.373-242.35c8.829-8.829 20.367-13.232 31.928-13.232s23.099 4.403 31.928 13.232c17.635 17.635 17.635 46.221 0 63.856l-242.35 242.35h342.741c24.928 0 45.16 20.232 45.16 45.16s-20.232 45.16-45.16 45.16z" />
</font>
</defs>
</svg>
