<?xml version="1.0" encoding="utf-8"?>
<!-- Generator: Adobe Illustrator 23.1.1, SVG Export Plug-In . SVG Version: 6.00 Build 0)  -->
<svg version="1.1" id="Layer_1" xmlns="http://www.w3.org/2000/svg" xmlns:xlink="http://www.w3.org/1999/xlink" x="0px" y="0px"
	 viewBox="0 0 226.772 136.063" enable-background="new 0 0 226.772 136.063" xml:space="preserve">
<g>
	<path fill="#231F20" d="M208.709,79.154c6.436,0.243,11.462-4.782,11.22-11.218c-0.207-5.507-4.819-10.12-10.327-10.328
		c-6.434-0.242-11.46,4.781-11.219,11.216C198.589,74.332,203.201,78.946,208.709,79.154z"/>
	<path fill="#231F20" d="M222.574,126.512c-2.969,0-3.687-1.536-3.687-4.402V86.786h-25.391v8.191h4.71
		c2.969,0,3.686,1.535,3.686,4.402v22.73c0,2.867-0.716,4.402-3.686,4.402h-4.403v8.191h32.968v-8.191H222.574z"/>
	<path fill="#231F20" d="M159.283,113.193c-7.972,0-14.488-3.771-25.185-3.771c-8.361,0-12.724,0.736-19.447,5.491l-0.328-0.328
		c14.919-23.281,65.189-10.821,65.189-50.17c0-23.445-19.61-32.463-39.941-32.463c-19.083,0-41.237,8.084-43.561,28.959H76.954V0
		H52.916L0,59.907v15.576h48.59v2.86c0,4.59-2.296,7.87-7.214,7.87h-5.069v13.772h52.465V86.212h-4.603
		c-4.919,0-7.214-3.279-7.214-7.87v-2.86h22.336c2.96,3.839,7.609,6.147,13.231,6.147c13.116,0,15.576-7.87,15.576-13.116
		c0-5.574-4.591-11.64-10.821-11.64c-1.968,0-4.427,0.328-6.394,1.311c2.13-8.689,11.968-13.116,20.001-13.116
		c10.657,0,20.003,5.903,20.003,17.543c0,26.888-55.088,23.118-55.088,64.106v6.886h14.263c0.655-4.755,4.1-6.722,9.346-6.722
		c5.41,0,9.117,2.296,15.019,4.59c5.902,2.296,10.758,4.591,18.3,4.591c19.018,0,28.692-8.462,28.692-27.316v-8.034H167.48
		C167.48,106.287,166.825,113.193,159.283,113.193z M48.59,60.119H17.951L49.39,24.745L48.59,60.119z"/>
</g>
</svg>
